<svg width="309" height="77" viewBox="0 0 309 77" fill="none" xmlns="http://www.w3.org/2000/svg">
<path d="M7.2634 35.9705L10.5624 12.2251H3.27562L3.71065 8.96232H21.8369L21.4019 12.2251H14.1514L10.8162 35.9705H7.2634ZM18.9163 35.9705L22.7591 8.52729H26.1669L24.5355 20.2369L23.9555 19.8381C24.5838 18.6055 25.4781 17.6629 26.6381 17.0104C27.7982 16.3337 29.0671 15.9953 30.4447 15.9953C31.8706 15.9953 33.1032 16.3337 34.1424 17.0104C35.1817 17.6871 35.943 18.6176 36.4263 19.8018C36.9339 20.9619 37.0789 22.2912 36.8614 23.7896L35.1575 35.9705H31.7135L33.3811 24.0796C33.5745 22.6054 33.3086 21.4332 32.5836 20.5631C31.8585 19.6931 30.8314 19.2581 29.5021 19.2581C28.5837 19.2581 27.7257 19.4756 26.9282 19.9106C26.1548 20.3215 25.5022 20.9136 24.9705 21.687C24.4388 22.4604 24.1005 23.3788 23.9555 24.4422L22.3603 35.9705H18.9163ZM47.595 36.4055C45.7823 36.4055 44.1872 35.9947 42.8096 35.1729C41.432 34.3512 40.3445 33.2274 39.5469 31.8015C38.7735 30.3513 38.3868 28.7079 38.3868 26.8711C38.3868 25.3968 38.6285 24.0071 39.1119 22.7021C39.6194 21.397 40.3324 20.2369 41.2508 19.2218C42.1933 18.2067 43.2688 17.4213 44.4772 16.8654C45.7098 16.2853 47.0633 15.9953 48.5375 15.9953C50.3743 15.9953 51.9332 16.4062 53.2141 17.2279C54.495 18.0496 55.4739 19.1251 56.1506 20.4544C56.8273 21.7595 57.1656 23.1854 57.1656 24.7322C57.1656 25.1431 57.1294 25.5781 57.0569 26.0373C56.9844 26.4965 56.9119 26.8832 56.8394 27.1974H40.8157L40.997 24.2972H55.0993L53.3954 25.566C53.7096 24.3334 53.6854 23.2338 53.3229 22.267C52.9604 21.2761 52.3561 20.4906 51.5102 19.9106C50.6644 19.3064 49.6614 19.0043 48.5013 19.0043C47.027 19.0043 45.7944 19.3668 44.8035 20.0919C43.8368 20.7927 43.0996 21.7837 42.5921 23.0646C42.1087 24.3213 41.8671 25.7714 41.8671 27.4149C41.8671 28.6233 42.1208 29.6746 42.6284 30.5689C43.1601 31.4631 43.861 32.1519 44.731 32.6353C45.6011 33.0945 46.5678 33.3241 47.6312 33.3241C48.9605 33.3241 50.0964 33.022 51.039 32.4177C52.0057 31.7894 52.7912 31.0039 53.3954 30.0613L56.1868 31.5839C55.7276 32.4782 55.0751 33.2999 54.2292 34.0491C53.3833 34.7742 52.3924 35.3542 51.2565 35.7892C50.1206 36.2001 48.9001 36.4055 47.595 36.4055ZM62.4245 35.9705L66.1948 8.96232H69.4575L77.5056 23.4996L75.5117 23.4271L87.9101 8.96232H91.2091L87.4388 35.9705H83.8861L87.0038 13.4939L88.2364 13.8927L76.2005 27.9949H75.9105L67.9712 13.5301L69.1675 13.4939L66.0135 35.9705H62.4245ZM100.723 36.4055C98.9108 36.4055 97.3157 35.9947 95.9381 35.1729C94.5605 34.3512 93.4729 33.2274 92.6753 31.8015C91.902 30.3513 91.5153 28.7079 91.5153 26.8711C91.5153 25.3968 91.7569 24.0071 92.2403 22.7021C92.7478 21.397 93.4608 20.2369 94.3792 19.2218C95.3218 18.2067 96.3973 17.4213 97.6057 16.8654C98.8383 16.2853 100.192 15.9953 101.666 15.9953C103.503 15.9953 105.062 16.4062 106.343 17.2279C107.623 18.0496 108.602 19.1251 109.279 20.4544C109.956 21.7595 110.294 23.1854 110.294 24.7322C110.294 25.1431 110.258 25.5781 110.185 26.0373C110.113 26.4965 110.04 26.8832 109.968 27.1974H93.9442L94.1254 24.2972H108.228L106.524 25.566C106.838 24.3334 106.814 23.2338 106.451 22.267C106.089 21.2761 105.485 20.4906 104.639 19.9106C103.793 19.3064 102.79 19.0043 101.63 19.0043C100.155 19.0043 98.9229 19.3668 97.932 20.0919C96.9652 20.7927 96.2281 21.7837 95.7206 23.0646C95.2372 24.3213 94.9955 25.7714 94.9955 27.4149C94.9955 28.6233 95.2493 29.6746 95.7568 30.5689C96.2885 31.4631 96.9894 32.1519 97.8595 32.6353C98.7295 33.0945 99.6963 33.3241 100.76 33.3241C102.089 33.3241 103.225 33.022 104.167 32.4177C105.134 31.7894 105.92 31.0039 106.524 30.0613L109.315 31.5839C108.856 32.4782 108.204 33.2999 107.358 34.0491C106.512 34.7742 105.521 35.3542 104.385 35.7892C103.249 36.2001 102.029 36.4055 100.723 36.4055ZM118.83 36.188C116.896 36.188 115.47 35.6321 114.552 34.5204C113.633 33.4086 113.307 31.8498 113.573 29.8438L114.987 19.6568H111.47L111.905 16.4304H112.558C113.428 16.4304 114.165 16.1524 114.769 15.5965C115.398 15.0407 115.76 14.3277 115.857 13.4576L116.074 11.935H119.518L118.902 16.4304H123.216L122.745 19.6568H118.431L116.981 29.9526C116.884 30.6051 116.896 31.1731 117.017 31.6564C117.138 32.1156 117.404 32.4782 117.815 32.744C118.225 32.9857 118.818 33.1065 119.591 33.1065C119.808 33.1065 120.038 33.0945 120.28 33.0703C120.546 33.0461 120.787 33.022 121.005 32.9978L120.751 36.0067C120.437 36.1034 120.086 36.1518 119.7 36.1518C119.337 36.1759 119.047 36.188 118.83 36.188ZM128.895 36.4055C127.783 36.4055 126.744 36.2122 125.777 35.8255C124.835 35.4146 124.073 34.8225 123.493 34.0491C122.913 33.2516 122.623 32.2606 122.623 31.0764C122.623 29.9405 122.901 28.9375 123.457 28.0674C124.037 27.1732 124.847 26.4482 125.886 25.8923C126.95 25.3122 128.194 24.9135 129.62 24.6959L137.016 23.4996L136.726 26.3273L130.2 27.4511C128.968 27.6687 127.989 28.0795 127.264 28.6837C126.539 29.2638 126.176 30.0009 126.176 30.8951C126.176 31.7169 126.478 32.3694 127.082 32.8528C127.711 33.312 128.52 33.5416 129.511 33.5416C130.647 33.5416 131.674 33.2757 132.593 32.744C133.535 32.2123 134.309 31.4993 134.913 30.6051C135.541 29.6867 135.928 28.6837 136.073 27.5962L136.689 22.9558C136.834 22.0858 136.726 21.3728 136.363 20.8169C136.001 20.2369 135.493 19.8139 134.84 19.5481C134.212 19.2581 133.535 19.113 132.81 19.113C131.626 19.113 130.563 19.4151 129.62 20.0194C128.702 20.6236 127.989 21.3849 127.481 22.3033L124.654 20.5994C125.137 19.7052 125.789 18.9197 126.611 18.243C127.457 17.5421 128.424 16.9983 129.511 16.6116C130.623 16.2008 131.795 15.9953 133.028 15.9953C134.478 15.9953 135.771 16.2974 136.907 16.9016C138.067 17.5058 138.937 18.3397 139.517 19.4031C140.121 20.4665 140.327 21.6991 140.133 23.1008L138.321 35.9705H134.985L135.493 32.2727L136.218 32.599C135.711 33.3724 135.082 34.0491 134.333 34.6292C133.584 35.185 132.75 35.6201 131.832 35.9342C130.913 36.2484 129.934 36.4055 128.895 36.4055Z" fill="#8E8E8E"/>
<path d="M2.88507 72.1599L6.8366 41.7078H16.8786L13.7608 61.4292H14.6672L25.2892 41.7078H33.2285L31.3071 61.4292H32.2134L41.7478 41.7078H52.1523L36.4187 72.1599H22.8965L24.7816 57.5139H23.9116L16.4073 72.1599H2.88507ZM79.1078 49.7196H61.5978L60.329 53.6349H77.7302L75.6276 60.0516H58.2626L56.9212 64.1481H74.395L71.7848 72.1599H44.3053L54.1298 41.7078H81.718L79.1078 49.7196ZM111.174 48.0882C111.174 51.1334 109.325 54.2149 105.047 55.665L104.793 56.245C106.606 57.2239 108.564 58.5652 108.564 62.263C108.564 69.3685 101.639 72.1599 92.6125 72.1599H74.3412L84.1656 41.7078H101.494C108.89 41.7078 111.174 44.4992 111.174 48.0882ZM97.3253 53.9611C99.863 53.9611 101.277 52.6198 101.277 51.2422C101.277 50.4084 100.806 49.4296 98.7029 49.4296H91.7787L90.2923 53.9611H97.3253ZM94.8601 64.4381C97.2166 64.4381 98.9929 63.3143 98.9929 61.4292C98.9929 60.6679 98.5942 59.4353 96.3103 59.4353H88.5159L86.8846 64.4381H94.8601ZM121.902 72.9575C113.056 72.9575 107.981 69.731 110.627 61.973H119.255C118.857 64.5831 121.14 65.0544 123.678 65.0544C127.34 65.0544 129.95 63.8943 129.95 61.9367C129.95 60.9579 129.515 59.544 125.164 59.544H123.316L125.092 53.8886H126.796C130.385 53.8886 133.031 52.9098 133.031 50.8797C133.031 49.1758 130.929 48.8133 129.152 48.8133C125.708 48.8133 123.932 49.8646 123.062 52.0035H114.542C116.283 43.8104 122.989 40.9102 130.747 40.9102C138.179 40.9102 142.384 43.6654 142.384 47.8707C142.384 51.5322 139.847 54.6137 135.315 56.1363L135.134 56.7163C137.345 57.5139 139.303 59.544 139.303 62.5167C139.303 69.8035 130.53 72.9575 121.902 72.9575Z" fill="#8E8E8E"/>
<path d="M154.074 0V76.1304" stroke="#E5E5E5" stroke-width="1.81263"/>
<path d="M175.785 34.3697C174.449 34.3697 173.214 34.1329 172.08 33.6592C170.947 33.1686 169.965 32.4834 169.136 31.6037C168.307 30.7239 167.656 29.6919 167.182 28.5077C166.726 27.3234 166.497 26.0292 166.497 24.625C166.497 23.2039 166.726 21.9013 167.182 20.717C167.639 19.5328 168.282 18.5008 169.111 17.621C169.94 16.7413 170.921 16.0646 172.055 15.5909C173.188 15.1003 174.423 14.855 175.76 14.855C177.062 14.855 178.23 15.0834 179.262 15.5401C180.311 15.9969 181.19 16.5891 181.901 17.3165C182.628 18.044 183.144 18.8222 183.449 19.6512L181.216 20.7424C180.776 19.6427 180.091 18.7715 179.16 18.1286C178.23 17.4857 177.096 17.1643 175.76 17.1643C174.44 17.1643 173.264 17.4772 172.232 18.1032C171.217 18.7292 170.422 19.6004 169.847 20.717C169.272 21.8336 168.984 23.1363 168.984 24.625C168.984 26.0969 169.272 27.3911 169.847 28.5077C170.439 29.6243 171.243 30.4955 172.258 31.1215C173.29 31.7475 174.466 32.0604 175.785 32.0604C176.936 32.0604 177.976 31.8151 178.907 31.3245C179.837 30.8339 180.573 30.1572 181.114 29.2944C181.656 28.4316 181.926 27.4334 181.926 26.2999V25.1326L183.068 26.1984H175.76V24.0414H184.439V25.7162C184.439 27.0358 184.21 28.2285 183.753 29.2944C183.297 30.3602 182.671 31.2738 181.876 32.0351C181.08 32.7795 180.158 33.3547 179.11 33.7607C178.061 34.1667 176.952 34.3697 175.785 34.3697ZM187.519 34.0652V14.855H189.879V34.0652H187.519ZM200.037 34.3697C198.718 34.3697 197.525 34.0652 196.459 33.4562C195.394 32.8302 194.548 31.9759 193.922 30.8931C193.296 29.8104 192.983 28.5838 192.983 27.2135C192.983 25.8431 193.287 24.625 193.896 23.5592C194.522 22.4934 195.368 21.6475 196.434 21.0215C197.5 20.3956 198.701 20.0826 200.037 20.0826C201.357 20.0826 202.55 20.3956 203.616 21.0215C204.681 21.6306 205.519 22.468 206.128 23.5338C206.754 24.5997 207.067 25.8262 207.067 27.2135C207.067 28.6007 206.745 29.8357 206.103 30.9185C205.46 31.9843 204.605 32.8302 203.539 33.4562C202.491 34.0652 201.323 34.3697 200.037 34.3697ZM200.037 32.0858C200.883 32.0858 201.645 31.8744 202.321 31.4514C203.015 31.0285 203.556 30.4448 203.945 29.7004C204.352 28.956 204.555 28.127 204.555 27.2135C204.555 26.283 204.352 25.4625 203.945 24.7519C203.556 24.0245 203.015 23.4492 202.321 23.0263C201.645 22.5864 200.883 22.3665 200.037 22.3665C199.175 22.3665 198.396 22.5864 197.703 23.0263C197.026 23.4492 196.485 24.0245 196.079 24.7519C195.673 25.4625 195.47 26.283 195.47 27.2135C195.47 28.127 195.673 28.956 196.079 29.7004C196.485 30.4448 197.026 31.0285 197.703 31.4514C198.396 31.8744 199.175 32.0858 200.037 32.0858ZM217.225 34.3697C216.125 34.3697 215.119 34.1244 214.205 33.6338C213.309 33.1432 212.615 32.4496 212.124 31.5529L212.454 31.1469V34.0652H210.145V14.855H212.505V23.3308L212.15 22.7472C212.657 21.9351 213.351 21.2922 214.231 20.8185C215.11 20.3279 216.117 20.0826 217.25 20.0826C218.536 20.0826 219.687 20.3956 220.702 21.0215C221.734 21.6475 222.546 22.5018 223.138 23.5846C223.73 24.6504 224.026 25.8685 224.026 27.2389C224.026 28.5754 223.73 29.785 223.138 30.8677C222.546 31.9505 221.734 32.8048 220.702 33.4308C219.687 34.0568 218.528 34.3697 217.225 34.3697ZM217.047 32.0858C217.91 32.0858 218.68 31.8744 219.357 31.4514C220.033 31.0285 220.558 30.4532 220.93 29.7258C221.319 28.9814 221.514 28.1524 221.514 27.2389C221.514 26.2915 221.319 25.4625 220.93 24.7519C220.558 24.0245 220.033 23.4492 219.357 23.0263C218.68 22.5864 217.91 22.3665 217.047 22.3665C216.185 22.3665 215.406 22.578 214.713 23.0009C214.036 23.4239 213.495 24.0075 213.089 24.7519C212.7 25.4794 212.505 26.3084 212.505 27.2389C212.505 28.1524 212.7 28.9814 213.089 29.7258C213.495 30.4532 214.036 31.0285 214.713 31.4514C215.406 31.8744 216.185 32.0858 217.047 32.0858ZM231.13 34.3697C230.234 34.3697 229.438 34.209 228.745 33.8876C228.068 33.5492 227.535 33.0924 227.146 32.5172C226.757 31.9251 226.562 31.2484 226.562 30.4871C226.562 29.7596 226.715 29.1083 227.019 28.5331C227.341 27.9409 227.831 27.4419 228.491 27.0358C229.168 26.6298 230.014 26.3422 231.029 26.173L236.104 25.3356V27.315L231.562 28.0763C230.682 28.2285 230.039 28.5077 229.633 28.9137C229.244 29.3198 229.049 29.8188 229.049 30.411C229.049 30.9692 229.269 31.4345 229.709 31.8067C230.166 32.1789 230.733 32.365 231.409 32.365C232.272 32.365 233.017 32.1873 233.643 31.8321C234.285 31.4599 234.784 30.9608 235.14 30.3348C235.512 29.7089 235.698 29.0152 235.698 28.2539V24.7773C235.698 24.0329 235.419 23.4323 234.861 22.9755C234.319 22.5018 233.6 22.265 232.704 22.265C231.925 22.265 231.232 22.468 230.623 22.874C230.031 23.2632 229.591 23.7876 229.303 24.4474L227.248 23.3816C227.501 22.7556 227.907 22.1973 228.466 21.7067C229.024 21.1992 229.675 20.8016 230.42 20.514C231.164 20.2264 231.942 20.0826 232.754 20.0826C233.803 20.0826 234.725 20.2856 235.52 20.6916C236.316 21.0807 236.933 21.6306 237.373 22.3411C237.83 23.0348 238.058 23.8468 238.058 24.7773V34.0652H235.749V31.4768L236.18 31.629C235.893 32.1704 235.503 32.6441 235.013 33.0501C234.522 33.4562 233.947 33.7776 233.287 34.0145C232.627 34.2513 231.908 34.3697 231.13 34.3697ZM241.717 34.0652V14.855H244.077V34.0652H241.717ZM175.76 62.3697C174.423 62.3697 173.188 62.1329 172.055 61.6592C170.938 61.1686 169.957 60.4834 169.111 59.6037C168.282 58.7239 167.639 57.6919 167.182 56.5077C166.726 55.3234 166.497 54.0292 166.497 52.625C166.497 51.2039 166.726 49.9013 167.182 48.717C167.639 47.5328 168.282 46.5008 169.111 45.621C169.94 44.7413 170.921 44.0646 172.055 43.5909C173.188 43.1003 174.423 42.855 175.76 42.855C177.062 42.855 178.23 43.0834 179.262 43.5401C180.311 43.9969 181.19 44.5891 181.901 45.3165C182.628 46.044 183.144 46.8222 183.449 47.6512L181.165 48.6916C180.725 47.6427 180.04 46.7968 179.11 46.154C178.179 45.4942 177.062 45.1643 175.76 45.1643C174.44 45.1643 173.264 45.4772 172.232 46.1032C171.217 46.7292 170.422 47.6004 169.847 48.717C169.272 49.8336 168.984 51.1363 168.984 52.625C168.984 54.0969 169.272 55.3911 169.847 56.5077C170.422 57.6243 171.217 58.4955 172.232 59.1215C173.264 59.7475 174.44 60.0604 175.76 60.0604C177.062 60.0604 178.179 59.739 179.11 59.0961C180.04 58.4363 180.725 57.582 181.165 56.5331L183.449 57.5735C183.144 58.4025 182.628 59.1807 181.901 59.9082C181.19 60.6357 180.311 61.2278 179.262 61.6846C178.23 62.1413 177.062 62.3697 175.76 62.3697ZM192.801 62.3697C191.482 62.3697 190.289 62.0652 189.223 61.4562C188.157 60.8302 187.311 59.9759 186.685 58.8931C186.059 57.8104 185.746 56.5838 185.746 55.2135C185.746 53.8431 186.051 52.625 186.66 51.5592C187.286 50.4934 188.132 49.6475 189.198 49.0215C190.263 48.3956 191.465 48.0826 192.801 48.0826C194.121 48.0826 195.313 48.3956 196.379 49.0215C197.445 49.6306 198.283 50.468 198.892 51.5338C199.518 52.5997 199.83 53.8262 199.83 55.2135C199.83 56.6007 199.509 57.8357 198.866 58.9185C198.223 59.9843 197.369 60.8302 196.303 61.4562C195.254 62.0652 194.087 62.3697 192.801 62.3697ZM192.801 60.0858C193.647 60.0858 194.408 59.8744 195.085 59.4514C195.779 59.0285 196.32 58.4448 196.709 57.7004C197.115 56.956 197.318 56.127 197.318 55.2135C197.318 54.283 197.115 53.4625 196.709 52.7519C196.32 52.0245 195.779 51.4492 195.085 51.0263C194.408 50.5864 193.647 50.3665 192.801 50.3665C191.938 50.3665 191.16 50.5864 190.466 51.0263C189.79 51.4492 189.248 52.0245 188.842 52.7519C188.436 53.4625 188.233 54.283 188.233 55.2135C188.233 56.127 188.436 56.956 188.842 57.7004C189.248 58.4448 189.79 59.0285 190.466 59.4514C191.16 59.8744 191.938 60.0858 192.801 60.0858ZM202.909 62.0652V48.3871H205.218V51.0517L204.837 50.8233C205.176 49.9605 205.717 49.2922 206.461 48.8185C207.223 48.3279 208.111 48.0826 209.126 48.0826C210.107 48.0826 210.978 48.3025 211.74 48.7424C212.518 49.1823 213.127 49.7913 213.567 50.5695C214.024 51.3477 214.252 52.2275 214.252 53.2087V62.0652H211.867V53.97C211.867 53.2087 211.731 52.5658 211.461 52.0414C211.19 51.5169 210.801 51.1109 210.293 50.8233C209.803 50.5188 209.236 50.3665 208.593 50.3665C207.95 50.3665 207.375 50.5188 206.867 50.8233C206.377 51.1109 205.988 51.5254 205.7 52.0668C205.412 52.5912 205.269 53.2256 205.269 53.97V62.0652H202.909ZM222.527 62.3697C221.157 62.3697 219.964 62.0314 218.949 61.3547C217.934 60.678 217.215 59.7644 216.792 58.614L218.67 57.7004C219.059 58.5125 219.592 59.1553 220.268 59.629C220.945 60.1027 221.698 60.3396 222.527 60.3396C223.271 60.3396 223.889 60.162 224.379 59.8067C224.87 59.4514 225.115 58.9862 225.115 58.411C225.115 58.0049 224.997 57.6835 224.76 57.4466C224.54 57.1929 224.269 56.9983 223.948 56.863C223.627 56.7107 223.33 56.6007 223.06 56.5331L221.004 55.9494C219.769 55.5941 218.864 55.0866 218.289 54.4268C217.731 53.767 217.452 52.9972 217.452 52.1175C217.452 51.3054 217.655 50.6034 218.061 50.0112C218.484 49.4022 219.05 48.9285 219.761 48.5901C220.488 48.2518 221.3 48.0826 222.197 48.0826C223.398 48.0826 224.472 48.3871 225.42 48.9962C226.384 49.6052 227.069 50.4596 227.475 51.5592L225.547 52.4474C225.242 51.7369 224.785 51.1786 224.176 50.7725C223.567 50.3496 222.882 50.1381 222.121 50.1381C221.427 50.1381 220.877 50.3158 220.471 50.671C220.065 51.0094 219.862 51.4408 219.862 51.9652C219.862 52.3544 219.964 52.6758 220.167 52.9296C220.37 53.1664 220.615 53.3525 220.903 53.4879C221.19 53.6063 221.47 53.7078 221.74 53.7924L223.973 54.4522C225.09 54.7736 225.953 55.2727 226.562 55.9494C227.188 56.6261 227.501 57.4382 227.501 58.3856C227.501 59.1469 227.289 59.8321 226.866 60.4411C226.443 61.0501 225.86 61.5238 225.115 61.8622C224.371 62.2006 223.508 62.3697 222.527 62.3697ZM237.087 62.3697C235.767 62.3697 234.574 62.0652 233.508 61.4562C232.443 60.8302 231.597 59.9759 230.971 58.8931C230.345 57.8104 230.032 56.5838 230.032 55.2135C230.032 53.8431 230.336 52.625 230.945 51.5592C231.571 50.4934 232.417 49.6475 233.483 49.0215C234.549 48.3956 235.75 48.0826 237.087 48.0826C238.406 48.0826 239.599 48.3956 240.665 49.0215C241.731 49.6306 242.568 50.468 243.177 51.5338C243.803 52.5997 244.116 53.8262 244.116 55.2135C244.116 56.6007 243.795 57.8357 243.152 58.9185C242.509 59.9843 241.654 60.8302 240.589 61.4562C239.54 62.0652 238.372 62.3697 237.087 62.3697ZM237.087 60.0858C237.933 60.0858 238.694 59.8744 239.371 59.4514C240.064 59.0285 240.606 58.4448 240.995 57.7004C241.401 56.956 241.604 56.127 241.604 55.2135C241.604 54.283 241.401 53.4625 240.995 52.7519C240.606 52.0245 240.064 51.4492 239.371 51.0263C238.694 50.5864 237.933 50.3665 237.087 50.3665C236.224 50.3665 235.446 50.5864 234.752 51.0263C234.075 51.4492 233.534 52.0245 233.128 52.7519C232.722 53.4625 232.519 54.283 232.519 55.2135C232.519 56.127 232.722 56.956 233.128 57.7004C233.534 58.4448 234.075 59.0285 234.752 59.4514C235.446 59.8744 236.224 60.0858 237.087 60.0858ZM247.194 62.0652V48.3871H249.503V50.8994L249.25 50.5441C249.571 49.7659 250.062 49.1907 250.722 48.8185C251.381 48.4294 252.185 48.2349 253.132 48.2349H253.97V50.468H252.777C251.813 50.468 251.034 50.7725 250.442 51.3816C249.85 51.9737 249.554 52.8196 249.554 53.9193V62.0652H247.194ZM261.748 62.2175C260.411 62.2175 259.379 61.8368 258.652 61.0755C257.941 60.3142 257.586 59.2399 257.586 57.8527V50.6457H255.099V48.3871H255.606C256.215 48.3871 256.698 48.201 257.053 47.8288C257.408 47.4566 257.586 46.966 257.586 46.357V45.2404H259.946V48.3871H263.016V50.6457H259.946V57.7765C259.946 58.2333 260.013 58.6309 260.149 58.9692C260.301 59.3076 260.546 59.5783 260.885 59.7813C261.223 59.9674 261.671 60.0604 262.23 60.0604C262.348 60.0604 262.492 60.052 262.661 60.0351C262.847 60.0182 263.016 60.0012 263.169 59.9843V62.0652C262.949 62.116 262.703 62.1498 262.433 62.1667C262.162 62.2006 261.934 62.2175 261.748 62.2175ZM266.252 62.0652V48.3871H268.612V62.0652H266.252ZM266.252 46.2047V43.1595H268.612V46.2047H266.252ZM277.121 62.3697C276.139 62.3697 275.251 62.1413 274.456 61.6846C273.678 61.2278 273.069 60.5934 272.629 59.7813C272.206 58.9523 271.994 58.0049 271.994 56.9391V48.3871H274.354V56.6853C274.354 57.362 274.49 57.9542 274.76 58.4617C275.048 58.9692 275.437 59.3668 275.928 59.6544C276.435 59.942 277.011 60.0858 277.653 60.0858C278.296 60.0858 278.863 59.942 279.354 59.6544C279.861 59.3668 280.25 58.9523 280.521 58.411C280.809 57.8696 280.952 57.2267 280.952 56.4823V48.3871H283.338V62.0652H281.029V59.4007L281.409 59.629C281.088 60.4919 280.538 61.1686 279.76 61.6592C278.998 62.1329 278.119 62.3697 277.121 62.3697ZM286.994 62.0652V48.3871H289.303V51.1786L288.973 50.7472C289.312 49.8843 289.853 49.2245 290.598 48.7678C291.342 48.311 292.179 48.0826 293.11 48.0826C294.176 48.0826 295.132 48.3787 295.977 48.9708C296.84 49.5629 297.432 50.3411 297.754 51.3054L297.094 51.3308C297.449 50.265 298.05 49.4614 298.896 48.92C299.742 48.3617 300.681 48.0826 301.713 48.0826C302.66 48.0826 303.514 48.3025 304.276 48.7424C305.054 49.1823 305.671 49.7913 306.128 50.5695C306.585 51.3477 306.813 52.2275 306.813 53.2087V62.0652H304.428V53.97C304.428 53.2087 304.293 52.5658 304.022 52.0414C303.751 51.5169 303.379 51.1109 302.905 50.8233C302.449 50.5188 301.907 50.3665 301.281 50.3665C300.672 50.3665 300.122 50.5188 299.632 50.8233C299.158 51.1109 298.777 51.5254 298.49 52.0668C298.219 52.5912 298.084 53.2256 298.084 53.97V62.0652H295.698V53.97C295.698 53.2087 295.563 52.5658 295.292 52.0414C295.022 51.5169 294.649 51.1109 294.176 50.8233C293.719 50.5188 293.178 50.3665 292.552 50.3665C291.943 50.3665 291.393 50.5188 290.902 50.8233C290.428 51.1109 290.048 51.5254 289.76 52.0668C289.489 52.5912 289.354 53.2256 289.354 53.97V62.0652H286.994Z" fill="#8E8E8E"/>
</svg>
