<svg width="339" height="75" viewBox="0 0 339 75" fill="none" xmlns="http://www.w3.org/2000/svg">
<path d="M7 50.3955H37.9164L30.4685 71.7234H0L7 50.3955Z" fill="#6A6A6A"/>
<path d="M8.65915 43H53L52.0316 44H8L8.65915 43Z" fill="#CECECE"/>
<path d="M90.0628 40.1819L87.7741 47.2355H76.2934L68.3394 71.6977H59.8977L67.8517 47.2355H56.1458L58.4344 40.1819H90.0628ZM119.849 48.9238C119.849 54.6642 116.209 58.9413 111.482 61.1174L114.033 71.6977H105.892L103.828 62.7307H94.1107L91.2218 71.6977H82.7425L92.8726 40.1819H108.668C116.247 40.1819 119.849 43.1459 119.849 48.9238ZM99.0632 47.2355L96.0992 56.4651L104.353 56.4276C107.843 56.4276 111.332 54.214 111.332 50.6122C111.332 48.0609 109.794 47.2355 106.83 47.2355H99.0632ZM141.442 71.6977L141.254 66.7828H126.547L123.208 71.6977H114.166L136.077 40.1819H147.97L149.809 71.6977H141.442ZM130.862 60.4421H141.029L140.541 48.1359H139.228L130.862 60.4421ZM165.49 72.7483C156.71 72.7483 151.495 67.8333 151.495 59.8793C151.495 48.9613 160.95 39.1314 173.969 39.1314C182.711 39.1314 188.526 44.5341 187.251 51.9628H179.146C178.809 48.211 175.957 46.4476 172.356 46.4476C165.002 46.4476 159.862 52.6382 159.862 58.6787C159.862 63.0684 162.863 65.4321 167.103 65.4321C170.48 65.4321 174.044 64.1189 176.745 59.9919H184.999C180.872 70.1595 172.055 72.7483 165.49 72.7483ZM218.935 46.9728H200.175L198.224 52.9383H216.796L214.92 58.6037H196.423L194.397 64.8693H213.119L210.906 71.6977H183.704L193.91 40.1819H221.148L218.935 46.9728Z" fill="#8E8E8E"/>
<path d="M11.3804 35L19.3413 10.2327H29.2482L28.688 24.1791H29.3957L37.7988 10.2622H48.5608L40.6294 35H32.7864L36.3246 24.0611H35.558L29.1893 35H23.1449L23.4692 24.0611H22.7026L19.1644 35H11.3804ZM71.0006 16.7489H56.7594L55.7275 19.9332H69.8802L68.1701 25.1521H54.0468L52.9559 28.4839H67.1676L65.0447 35H42.6952L50.6856 10.2327H73.1235L71.0006 16.7489ZM100.825 10.2327L98.6137 17.0437H89.8861L84.0187 35H75.8514L81.7188 17.0437H72.7849L74.9668 10.2327H100.825ZM110.322 35L110.263 31.7272H99.8253L97.6729 35H88.9749L105.811 10.2327H117.31L118.43 35H110.322ZM103.806 25.6828H110.204L110.086 17.8988H108.907L103.806 25.6828Z" fill="#8E8E8E"/>
<path d="M125.598 24.328L338.877 24.328" stroke="#CFCFCF" stroke-width="1.91839"/>
<path d="M240.392 49.6731C239.436 49.6731 238.545 49.5093 237.72 49.1818C236.895 48.8412 236.174 48.3631 235.559 47.7474C234.943 47.1318 234.465 46.3916 234.124 45.5271C233.784 44.6625 233.613 43.6997 233.613 42.6386C233.613 41.5251 233.803 40.4837 234.183 39.5144C234.576 38.5319 235.12 37.6739 235.814 36.9403C236.508 36.1936 237.32 35.6107 238.25 35.1915C239.194 34.7723 240.222 34.5627 241.335 34.5627C242.383 34.5627 243.307 34.7461 244.106 35.1129C244.918 35.4666 245.586 35.9316 246.11 36.508C246.647 37.0844 247.014 37.7066 247.211 38.3747L245.069 39.2786C244.807 38.5057 244.355 37.8769 243.713 37.3922C243.071 36.9076 242.259 36.6652 241.276 36.6652C240.504 36.6652 239.79 36.8159 239.135 37.1171C238.493 37.4184 237.93 37.8376 237.445 38.3747C236.96 38.9118 236.587 39.5471 236.325 40.2807C236.063 41.0012 235.932 41.7937 235.932 42.6583C235.932 43.6407 236.115 44.5053 236.482 45.252C236.862 45.9855 237.386 46.5554 238.054 46.9615C238.722 47.3544 239.501 47.5509 240.392 47.5509C241.414 47.5509 242.285 47.302 243.006 46.8043C243.739 46.3065 244.289 45.6712 244.656 44.8983L246.7 45.92C246.412 46.5881 245.966 47.2103 245.364 47.7867C244.761 48.35 244.04 48.8085 243.202 49.1622C242.364 49.5028 241.427 49.6731 240.392 49.6731ZM248.782 53.7798C248.494 53.7798 248.219 53.7536 247.957 53.7012C247.708 53.6488 247.479 53.5702 247.269 53.4654L247.427 51.6183C247.584 51.6445 247.767 51.6707 247.977 51.6969C248.186 51.7362 248.383 51.7559 248.566 51.7559C248.972 51.7559 249.313 51.6904 249.588 51.5594C249.876 51.4284 250.132 51.2319 250.354 50.9699C250.577 50.721 250.8 50.4132 251.022 50.0464L251.966 48.4941L251.73 50.3608L248.763 38.7873H251.062L253.184 47.6688H252.339L257.015 38.7873H259.511L253.145 50.6555C252.804 51.2843 252.417 51.8345 251.985 52.3061C251.566 52.7777 251.088 53.1379 250.551 53.3868C250.027 53.6488 249.437 53.7798 248.782 53.7798ZM265.569 49.6731C264.718 49.6731 263.939 49.4962 263.231 49.1425C262.537 48.7888 262.013 48.2911 261.659 47.6492L261.974 47.2758L261.699 49.4373H259.557L261.64 34.5627H263.86L262.976 41.0077L262.347 40.4772C262.766 39.8746 263.31 39.4096 263.978 39.0821C264.659 38.7415 265.412 38.5712 266.238 38.5712C267.233 38.5712 268.104 38.8004 268.851 39.2589C269.611 39.7174 270.2 40.3396 270.619 41.1256C271.052 41.8985 271.268 42.7696 271.268 43.739C271.268 44.5511 271.124 45.3175 270.836 46.0379C270.547 46.7453 270.141 47.3741 269.617 47.9243C269.106 48.4745 268.504 48.9067 267.81 49.2211C267.128 49.5224 266.382 49.6731 265.569 49.6731ZM265.393 47.6099C266.087 47.6099 266.696 47.4396 267.22 47.099C267.757 46.7453 268.176 46.2803 268.478 45.7039C268.792 45.1144 268.949 44.466 268.949 43.7586C268.949 43.156 268.818 42.619 268.556 42.1474C268.307 41.6758 267.96 41.309 267.515 41.047C267.069 40.7719 266.545 40.6344 265.943 40.6344C265.262 40.6344 264.653 40.8112 264.115 41.1649C263.591 41.5055 263.179 41.964 262.878 42.5404C262.589 43.1167 262.445 43.7521 262.445 44.4463C262.445 45.062 262.57 45.6122 262.819 46.0969C263.081 46.5685 263.428 46.9418 263.86 47.2169C264.305 47.4789 264.816 47.6099 265.393 47.6099ZM278.124 49.6731C277.103 49.6731 276.205 49.4504 275.432 49.005C274.673 48.5465 274.077 47.9243 273.644 47.1383C273.225 46.3523 273.016 45.4681 273.016 44.4856C273.016 43.6735 273.153 42.9137 273.428 42.2063C273.716 41.4858 274.109 40.8571 274.607 40.32C275.118 39.7698 275.707 39.3441 276.376 39.0428C277.057 38.7284 277.797 38.5712 278.596 38.5712C279.631 38.5712 280.502 38.7873 281.209 39.2196C281.93 39.6519 282.473 40.2348 282.84 40.9684C283.207 41.6889 283.39 42.4814 283.39 43.346C283.39 43.5687 283.371 43.8045 283.331 44.0534C283.292 44.3022 283.253 44.538 283.213 44.7607H274.725L274.863 42.9923H282.074L280.954 43.7586C281.137 43.1429 281.144 42.5862 280.973 42.0884C280.803 41.5775 280.508 41.178 280.089 40.8898C279.67 40.5885 279.166 40.4379 278.576 40.4379C277.83 40.4379 277.214 40.6278 276.729 41.0077C276.245 41.3745 275.884 41.8788 275.649 42.5207C275.413 43.1626 275.295 43.8962 275.295 44.7214C275.295 45.3371 275.419 45.8742 275.668 46.3327C275.917 46.7781 276.258 47.1187 276.69 47.3544C277.122 47.5902 277.613 47.7081 278.164 47.7081C278.819 47.7081 279.382 47.5575 279.853 47.2562C280.338 46.9549 280.731 46.575 281.032 46.1165L282.801 47.0794C282.552 47.5771 282.192 48.0225 281.72 48.4155C281.262 48.8085 280.725 49.1163 280.109 49.339C279.493 49.5617 278.832 49.6731 278.124 49.6731ZM284.79 49.4373L286.264 38.807H288.406L288.111 40.9488L287.934 40.6344C288.275 39.9401 288.726 39.4423 289.29 39.141C289.853 38.8266 290.501 38.6694 291.235 38.6694H291.883L291.608 40.6933H290.685C289.938 40.6933 289.309 40.9291 288.799 41.4007C288.288 41.8723 287.967 42.5731 287.836 43.5032L287.01 49.4373H284.79ZM295.996 49.6731C295.276 49.6731 294.614 49.5486 294.012 49.2997C293.409 49.0508 292.898 48.6971 292.479 48.2387C292.073 47.7802 291.791 47.2496 291.634 46.6471L293.383 45.9397C293.605 46.5423 293.953 47.0139 294.424 47.3544C294.909 47.695 295.472 47.8653 296.114 47.8653C296.69 47.8653 297.142 47.7343 297.47 47.4723C297.81 47.1972 297.981 46.8567 297.981 46.4506C297.981 46.1362 297.863 45.8873 297.627 45.7039C297.404 45.5205 297.11 45.3764 296.743 45.2716L295.112 44.8197C294.313 44.597 293.704 44.2433 293.285 43.7586C292.865 43.2608 292.656 42.6714 292.656 41.9902C292.656 41.3352 292.833 40.7523 293.186 40.2414C293.54 39.7305 294.025 39.3244 294.64 39.0231C295.256 38.7218 295.944 38.5712 296.704 38.5712C297.712 38.5712 298.57 38.8201 299.278 39.3179C299.998 39.8157 300.476 40.4903 300.712 41.3418L298.924 42.0491C298.78 41.5251 298.498 41.1256 298.079 40.8505C297.66 40.5623 297.175 40.4182 296.625 40.4182C296.101 40.4182 295.669 40.5427 295.328 40.7916C295.001 41.0274 294.837 41.3483 294.837 41.7544C294.837 42.0688 294.948 42.3177 295.171 42.5011C295.394 42.6845 295.682 42.8285 296.035 42.9333L297.706 43.4442C298.505 43.6931 299.114 44.0599 299.533 44.5446C299.965 45.0293 300.181 45.6057 300.181 46.2737C300.181 46.9156 299.998 47.492 299.631 48.0029C299.278 48.5138 298.786 48.9198 298.158 49.2211C297.529 49.5224 296.808 49.6731 295.996 49.6731ZM307.368 49.6731C306.386 49.6731 305.508 49.4504 304.735 49.005C303.962 48.5465 303.353 47.9243 302.908 47.1383C302.475 46.3523 302.259 45.4616 302.259 44.466C302.259 43.6407 302.41 42.8678 302.711 42.1474C303.012 41.4269 303.425 40.7981 303.949 40.261C304.473 39.724 305.082 39.3113 305.776 39.0231C306.484 38.7218 307.244 38.5712 308.056 38.5712C308.802 38.5712 309.484 38.7022 310.099 38.9642C310.715 39.2131 311.239 39.5668 311.671 40.0252C312.117 40.4706 312.431 40.9946 312.614 41.5972L310.63 42.4225C310.446 41.8723 310.125 41.44 309.667 41.1256C309.209 40.7981 308.665 40.6344 308.036 40.6344C307.355 40.6344 306.752 40.8112 306.228 41.1649C305.717 41.5186 305.311 41.9902 305.01 42.5797C304.722 43.156 304.578 43.7848 304.578 44.466C304.578 45.0817 304.696 45.6253 304.932 46.0969C305.18 46.5685 305.521 46.9418 305.953 47.2169C306.399 47.4789 306.896 47.6099 307.447 47.6099C308.115 47.6099 308.704 47.4396 309.215 47.099C309.726 46.7453 310.112 46.2868 310.374 45.7235L312.28 46.706C312.018 47.2824 311.645 47.7933 311.16 48.2387C310.676 48.684 310.106 49.0377 309.451 49.2997C308.809 49.5486 308.115 49.6731 307.368 49.6731ZM317.319 49.6731C316.664 49.6731 316.074 49.5683 315.55 49.3587C315.026 49.136 314.607 48.8085 314.293 48.3762C313.992 47.9439 313.841 47.4068 313.841 46.765C313.841 46.1231 314.005 45.5598 314.332 45.0751C314.66 44.5904 315.118 44.1975 315.708 43.8962C316.297 43.5818 316.978 43.3656 317.751 43.2477L321.563 42.6386L321.386 44.3874L318.105 44.9572C317.528 45.062 317.057 45.2585 316.69 45.5467C316.336 45.8218 316.16 46.1886 316.16 46.6471C316.16 47.0532 316.304 47.3675 316.592 47.5902C316.893 47.8129 317.286 47.9243 317.771 47.9243C318.347 47.9243 318.865 47.7933 319.323 47.5313C319.782 47.2562 320.161 46.896 320.463 46.4506C320.777 45.9921 320.967 45.4943 321.033 44.9572L321.386 42.3635C321.439 41.9574 321.373 41.6168 321.19 41.3418C321.02 41.0667 320.777 40.8571 320.463 40.713C320.148 40.5689 319.801 40.4968 319.421 40.4968C318.806 40.4968 318.256 40.6606 317.771 40.9881C317.299 41.3025 316.932 41.7085 316.67 42.2063L314.882 41.1846C315.144 40.6606 315.511 40.2021 315.983 39.8091C316.454 39.4161 316.998 39.1148 317.614 38.9052C318.229 38.6825 318.878 38.5712 319.559 38.5712C320.397 38.5712 321.137 38.7349 321.779 39.0624C322.421 39.3899 322.912 39.8484 323.253 40.4379C323.594 41.0143 323.711 41.6889 323.607 42.4618L322.624 49.4373H320.502L320.758 47.5116L321.288 47.6099C320.987 48.0553 320.633 48.4352 320.227 48.7495C319.821 49.0508 319.369 49.2801 318.871 49.4373C318.386 49.5945 317.869 49.6731 317.319 49.6731ZM325.24 49.4373L326.714 38.807H328.836L328.561 40.8898L328.325 40.5558C328.666 39.8877 329.137 39.3899 329.74 39.0624C330.355 38.7349 331.037 38.5712 331.783 38.5712C332.569 38.5712 333.244 38.7546 333.807 39.1214C334.383 39.4882 334.803 39.9925 335.065 40.6344C335.34 41.2763 335.418 42.0033 335.3 42.8155L334.377 49.4373H332.157L333.041 43.0512C333.146 42.3177 333.015 41.7347 332.648 41.3025C332.281 40.8571 331.757 40.6344 331.076 40.6344C330.617 40.6344 330.192 40.7392 329.799 40.9488C329.406 41.1584 329.078 41.4531 328.816 41.833C328.554 42.2129 328.384 42.6648 328.305 43.1888L327.441 49.4373H325.24ZM233.024 70.4373L235.067 55.7985H237.366L235.617 68.3741H241.945L241.669 70.4373H233.024ZM248.842 70.6731C247.82 70.6731 246.923 70.4504 246.15 70.005C245.391 69.5465 244.794 68.9243 244.362 68.1383C243.943 67.3523 243.733 66.4681 243.733 65.4856C243.733 64.6735 243.871 63.9137 244.146 63.2063C244.434 62.4858 244.827 61.8571 245.325 61.32C245.836 60.7698 246.425 60.3441 247.093 60.0428C247.775 59.7284 248.515 59.5712 249.314 59.5712C250.349 59.5712 251.22 59.7873 251.927 60.2196C252.648 60.6519 253.191 61.2348 253.558 61.9684C253.925 62.6889 254.108 63.4814 254.108 64.346C254.108 64.5687 254.089 64.8045 254.049 65.0534C254.01 65.3022 253.971 65.538 253.931 65.7607H245.443L245.58 63.9923H252.792L251.672 64.7586C251.855 64.1429 251.862 63.5862 251.691 63.0884C251.521 62.5775 251.226 62.178 250.807 61.8898C250.388 61.5885 249.884 61.4379 249.294 61.4379C248.547 61.4379 247.932 61.6278 247.447 62.0077C246.962 62.3745 246.602 62.8788 246.366 63.5207C246.131 64.1626 246.013 64.8962 246.013 65.7214C246.013 66.3371 246.137 66.8742 246.386 67.3327C246.635 67.7781 246.976 68.1187 247.408 68.3544C247.84 68.5902 248.331 68.7081 248.882 68.7081C249.537 68.7081 250.1 68.5575 250.571 68.2562C251.056 67.9549 251.449 67.575 251.75 67.1165L253.519 68.0794C253.27 68.5771 252.91 69.0225 252.438 69.4155C251.98 69.8085 251.442 70.1163 250.827 70.339C250.211 70.5617 249.55 70.6731 248.842 70.6731ZM260.813 70.6731C259.831 70.6731 258.96 70.4569 258.2 70.0246C257.453 69.5793 256.864 68.9767 256.431 68.2169C256.012 67.444 255.803 66.5664 255.803 65.5839C255.803 64.7062 255.953 63.9071 256.255 63.1867C256.556 62.4531 256.969 61.8178 257.493 61.2807C258.017 60.7305 258.626 60.3113 259.32 60.0231C260.027 59.7218 260.781 59.5712 261.58 59.5712C262.47 59.5712 263.243 59.748 263.898 60.1017C264.553 60.4554 265.064 60.9466 265.431 61.5754L264.999 62.0077L265.883 55.5627H268.123L266.04 70.4373H263.918L264.213 68.2758L264.743 68.6099C264.337 69.2911 263.78 69.8085 263.073 70.1622C262.379 70.5028 261.625 70.6731 260.813 70.6731ZM261.069 68.6099C261.763 68.6099 262.372 68.433 262.896 68.0794C263.433 67.7257 263.852 67.2606 264.154 66.6843C264.468 66.0948 264.625 65.4529 264.625 64.7586C264.625 64.156 264.501 63.619 264.252 63.1474C264.003 62.6758 263.656 62.309 263.21 62.047C262.765 61.7719 262.254 61.6344 261.678 61.6344C260.997 61.6344 260.388 61.8112 259.85 62.1649C259.313 62.5055 258.888 62.9705 258.573 63.56C258.272 64.1364 258.121 64.7783 258.121 65.4856C258.121 66.0882 258.246 66.6253 258.495 67.0969C258.744 67.5685 259.091 67.9418 259.536 68.2169C259.981 68.4789 260.492 68.6099 261.069 68.6099ZM273.329 74.7601C272.543 74.7601 271.829 74.6291 271.187 74.3671C270.545 74.1051 270.015 73.7515 269.595 73.3061C269.176 72.8607 268.888 72.3433 268.731 71.7538L270.833 71.066C270.938 71.5376 271.22 71.9241 271.678 72.2254C272.137 72.5397 272.752 72.6969 273.525 72.6969C274.062 72.6969 274.56 72.5921 275.019 72.3826C275.477 72.173 275.864 71.8717 276.178 71.4787C276.492 71.0988 276.689 70.6338 276.767 70.0836L277.121 67.5488L277.711 68.0401C277.305 68.7212 276.767 69.2321 276.099 69.5727C275.431 69.9133 274.691 70.0836 273.879 70.0836C272.949 70.0836 272.117 69.8805 271.384 69.4745C270.65 69.0553 270.067 68.4789 269.635 67.7453C269.216 66.9986 269.006 66.1406 269.006 65.1713C269.006 64.3853 269.144 63.6517 269.419 62.9705C269.707 62.2894 270.1 61.6933 270.598 61.1824C271.095 60.6716 271.678 60.2786 272.346 60.0035C273.014 59.7153 273.741 59.5712 274.527 59.5712C275.379 59.5712 276.139 59.7546 276.807 60.1214C277.488 60.4751 278.018 60.9728 278.398 61.6147L277.986 62.1453L278.3 59.807H280.422L278.988 70.1622C278.87 71.066 278.549 71.8586 278.025 72.5397C277.501 73.234 276.833 73.7777 276.021 74.1706C275.209 74.5636 274.311 74.7601 273.329 74.7601ZM274.154 68.0204C274.796 68.0204 275.372 67.8632 275.883 67.5488C276.394 67.2213 276.794 66.7956 277.082 66.2716C277.383 65.7476 277.534 65.1778 277.534 64.5621C277.534 63.9988 277.416 63.4945 277.18 63.0491C276.944 62.6037 276.61 62.2566 276.178 62.0077C275.759 61.7588 275.268 61.6344 274.704 61.6344C274.089 61.6344 273.519 61.7916 272.995 62.106C272.484 62.4072 272.078 62.8199 271.777 63.3439C271.475 63.8678 271.325 64.4573 271.325 65.1123C271.325 65.6756 271.442 66.1799 271.678 66.6253C271.914 67.0576 272.248 67.3982 272.68 67.6471C273.113 67.896 273.604 68.0204 274.154 68.0204ZM286.99 70.6731C285.968 70.6731 285.07 70.4504 284.298 70.005C283.538 69.5465 282.942 68.9243 282.509 68.1383C282.09 67.3523 281.881 66.4681 281.881 65.4856C281.881 64.6735 282.018 63.9137 282.293 63.2063C282.582 62.4858 282.975 61.8571 283.472 61.32C283.983 60.7698 284.573 60.3441 285.241 60.0428C285.922 59.7284 286.662 59.5712 287.461 59.5712C288.496 59.5712 289.367 59.7873 290.074 60.2196C290.795 60.6519 291.339 61.2348 291.705 61.9684C292.072 62.6889 292.256 63.4814 292.256 64.346C292.256 64.5687 292.236 64.8045 292.197 65.0534C292.157 65.3022 292.118 65.538 292.079 65.7607H283.59L283.728 63.9923H290.939L289.819 64.7586C290.002 64.1429 290.009 63.5862 289.839 63.0884C289.668 62.5775 289.374 62.178 288.954 61.8898C288.535 61.5885 288.031 61.4379 287.441 61.4379C286.695 61.4379 286.079 61.6278 285.594 62.0077C285.11 62.3745 284.75 62.8788 284.514 63.5207C284.278 64.1626 284.16 64.8962 284.16 65.7214C284.16 66.3371 284.284 66.8742 284.533 67.3327C284.782 67.7781 285.123 68.1187 285.555 68.3544C285.987 68.5902 286.479 68.7081 287.029 68.7081C287.684 68.7081 288.247 68.5575 288.719 68.2562C289.203 67.9549 289.596 67.575 289.898 67.1165L291.666 68.0794C291.417 68.5771 291.057 69.0225 290.585 69.4155C290.127 69.8085 289.59 70.1163 288.974 70.339C288.358 70.5617 287.697 70.6731 286.99 70.6731ZM293.655 70.4373L295.129 59.807H297.271L296.976 61.9488L296.799 61.6344C297.14 60.9401 297.592 60.4423 298.155 60.141C298.718 59.8266 299.367 59.6694 300.1 59.6694H300.749L300.474 61.6933H299.55C298.803 61.6933 298.175 61.9291 297.664 62.4007C297.153 62.8723 296.832 63.5731 296.701 64.5032L295.876 70.4373H293.655Z" fill="#8E8E8E"/>
<path d="M137.447 7.10932V35.5466" stroke="#CFCFCF" stroke-width="1.91952"/>
<path d="M31.1455 50.3955H61.6141L54.1662 71.7234H23.6977L31.1455 50.3955Z" fill="#8E8E8E"/>
</svg>
