<svg width="233" height="98" viewBox="0 0 233 98" fill="none" xmlns="http://www.w3.org/2000/svg">
<path d="M9.02345 75.3748C7.94461 75.3748 6.96182 75.1826 6.0751 74.7984C5.20316 74.4142 4.46422 73.8821 3.8583 73.2023C3.26715 72.5077 2.86812 71.7023 2.66122 70.786L4.92236 69.9658C5.20316 70.9559 5.70563 71.7244 6.42979 72.2712C7.16873 72.8033 8.04067 73.0693 9.04562 73.0693C9.71066 73.0693 10.2796 72.9585 10.7526 72.7368C11.2255 72.5151 11.5876 72.2195 11.8388 71.8501C12.1048 71.4658 12.2378 71.0372 12.2378 70.5643C12.2378 70.0618 12.0826 69.6406 11.7723 69.3007C11.4767 68.9608 11.0186 68.6948 10.3979 68.5027L7.49386 67.5716C6.37068 67.2021 5.5209 66.6553 4.94453 65.9312C4.38294 65.207 4.10215 64.3425 4.10215 63.3375C4.10215 62.4065 4.34599 61.5641 4.83369 60.8104C5.32139 60.0566 5.99382 59.4581 6.85098 59.0147C7.70815 58.5566 8.68354 58.3275 9.77717 58.3275C10.7821 58.3275 11.6836 58.5049 12.4817 58.8596C13.2945 59.2143 13.9669 59.702 14.499 60.3227C15.031 60.9434 15.3931 61.6527 15.5852 62.4508L13.3462 63.271C13.1098 62.4434 12.6738 61.7931 12.0383 61.3202C11.4028 60.8473 10.6343 60.6108 9.73283 60.6108C9.1269 60.6108 8.59487 60.7217 8.13673 60.9434C7.67859 61.1503 7.3239 61.4385 7.07266 61.8079C6.82143 62.1774 6.69581 62.6134 6.69581 63.1158C6.69581 63.6183 6.84359 64.0543 7.13917 64.4238C7.44952 64.7784 7.92983 65.0666 8.58009 65.2883L11.2624 66.175C12.4595 66.5593 13.3536 67.1061 13.9448 67.8155C14.5507 68.5248 14.8537 69.382 14.8537 70.387C14.8537 71.2885 14.6024 72.1235 14.0999 72.8919C13.5975 73.6457 12.9103 74.2516 12.0383 74.7097C11.1664 75.1531 10.1614 75.3748 9.02345 75.3748ZM19.8506 75.1088L22.1561 58.5936H33.0185L32.7081 60.9212H24.4394L23.7744 65.6652H31.5997L31.2672 67.9928H23.4419L22.7768 72.7811H31.0455L30.713 75.1088H19.8506ZM35.8246 75.1088L38.1301 58.5936H40.2139L47.5515 71.3845L46.6648 71.5397L48.4826 58.5936H51.0984L48.7929 75.1088H46.687L39.438 62.2291L40.2361 62.0518L38.4183 75.1088H35.8246ZM53.4091 75.1088L61.5226 58.5936H64.7591L68.2617 75.1088H65.5572L64.8256 71.4067H58.1309L56.3353 75.1088H53.4091ZM59.2171 69.079H64.3601L62.631 60.4557L63.3625 60.5443L59.2171 69.079ZM74.595 75.1088L76.5901 60.9212H72.2008L72.5334 58.5936H83.8391L83.5065 60.9212H79.1838L77.2108 75.1088H74.595ZM92.5556 75.3748C91.2846 75.3748 90.191 75.1088 89.2747 74.5767C88.3732 74.0447 87.7008 73.3279 87.2574 72.4264C86.8289 71.5101 86.6885 70.4756 86.8362 69.3229L88.3437 58.5936H90.9595L89.4521 69.3229C89.3634 70.047 89.4373 70.6899 89.6738 71.2515C89.9102 71.7983 90.2871 72.2269 90.8043 72.5373C91.3216 72.8328 91.9497 72.9806 92.6886 72.9806C93.4128 72.9806 94.0704 72.8328 94.6616 72.5373C95.2527 72.2269 95.7478 71.7909 96.1468 71.2293C96.5459 70.653 96.7971 69.9879 96.9005 69.2342L98.3858 58.5936H100.979L99.4499 69.4559C99.2873 70.6086 98.8883 71.6284 98.2528 72.5151C97.6321 73.4018 96.8266 74.1038 95.8365 74.6211C94.8611 75.1235 93.7675 75.3748 92.5556 75.3748ZM110.842 75.3748C109.763 75.3748 108.781 75.1826 107.894 74.7984C107.022 74.4142 106.283 73.8821 105.677 73.2023C105.086 72.5077 104.687 71.7023 104.48 70.786L106.741 69.9658C107.022 70.9559 107.525 71.7244 108.249 72.2712C108.988 72.8033 109.86 73.0693 110.865 73.0693C111.53 73.0693 112.099 72.9585 112.571 72.7368C113.044 72.5151 113.406 72.2195 113.658 71.8501C113.924 71.4658 114.057 71.0372 114.057 70.5643C114.057 70.0618 113.902 69.6406 113.591 69.3007C113.296 68.9608 112.837 68.6948 112.217 68.5027L109.313 67.5716C108.19 67.2021 107.34 66.6553 106.763 65.9312C106.202 65.207 105.921 64.3425 105.921 63.3375C105.921 62.4065 106.165 61.5641 106.653 60.8104C107.14 60.0566 107.813 59.4581 108.67 59.0147C109.527 58.5566 110.502 58.3275 111.596 58.3275C112.601 58.3275 113.503 58.5049 114.301 58.8596C115.113 59.2143 115.786 59.702 116.318 60.3227C116.85 60.9434 117.212 61.6527 117.404 62.4508L115.165 63.271C114.929 62.4434 114.493 61.7931 113.857 61.3202C113.222 60.8473 112.453 60.6108 111.552 60.6108C110.946 60.6108 110.414 60.7217 109.956 60.9434C109.497 61.1503 109.143 61.4385 108.892 61.8079C108.64 62.1774 108.515 62.6134 108.515 63.1158C108.515 63.6183 108.662 64.0543 108.958 64.4238C109.268 64.7784 109.749 65.0666 110.399 65.2883L113.081 66.175C114.278 66.5593 115.172 67.1061 115.764 67.8155C116.37 68.5248 116.673 69.382 116.673 70.387C116.673 71.2885 116.421 72.1235 115.919 72.8919C115.416 73.6457 114.729 74.2516 113.857 74.7097C112.985 75.1531 111.98 75.3748 110.842 75.3748Z" fill="#8E8E8E"/>
<path d="M1.37695 52L5.37829 23.3589H11.8541L11.0117 29.6768L10.3273 28.6764C11.2399 26.5705 12.4684 25.0612 14.0127 24.1486C15.5922 23.2009 17.3998 22.7271 19.4356 22.7271C21.7873 22.7271 23.7704 23.3413 25.385 24.5698C27.0346 25.7983 28.1052 27.4304 28.5965 29.4662L26.1747 29.6241C27.4383 27.1672 29.0353 25.4122 30.9658 24.3592C32.9313 23.2711 35.0724 22.7271 37.3889 22.7271C39.4598 22.7271 41.2499 23.2009 42.7592 24.1486C44.2684 25.0963 45.3741 26.4125 46.0761 28.0973C46.8131 29.7821 47.0237 31.7125 46.7078 33.8887L44.2333 52H37.2837L39.6529 35.047C39.8284 33.8185 39.7406 32.7655 39.3896 31.888C39.0737 31.0106 38.5472 30.3261 37.8101 29.8347C37.0731 29.3082 36.1429 29.045 35.0197 29.045C33.9317 29.045 32.9313 29.2907 32.0187 29.7821C31.1062 30.2735 30.3515 30.9755 29.7548 31.888C29.1581 32.7655 28.772 33.8185 28.5965 35.047L26.2273 52H19.3303L21.6995 35.047C21.875 33.8185 21.7873 32.7655 21.4363 31.888C21.1204 31.0106 20.5939 30.3261 19.8568 29.8347C19.1197 29.3082 18.1896 29.045 17.0664 29.045C15.9783 29.045 14.9604 29.3082 14.0127 29.8347C13.1002 30.3261 12.3455 31.0281 11.7488 31.9407C11.1872 32.8533 10.8011 33.9414 10.5905 35.2049L8.27399 52H1.37695ZM62.7041 52.6318C59.8962 52.6318 57.4392 52.0175 55.3332 50.7891C53.2624 49.5606 51.6478 47.8934 50.4895 45.7874C49.3663 43.6463 48.8048 41.2596 48.8048 38.6271C48.8048 36.451 49.1733 34.4152 49.9104 32.5198C50.6826 30.5894 51.7531 28.887 53.122 27.4129C54.526 25.9387 56.1405 24.798 57.9657 23.9907C59.7909 23.1483 61.7915 22.7271 63.9677 22.7271C66.7757 22.7271 69.1624 23.3062 71.128 24.4645C73.0936 25.6228 74.5853 27.1847 75.6032 29.1503C76.621 31.0808 77.13 33.2569 77.13 35.6788C77.13 36.3106 77.0773 36.9599 76.972 37.6268C76.8667 38.2937 76.7263 38.9606 76.5508 39.6275H54.4382L54.8068 34.3625H72.9707L69.5485 36.7318C70.0048 35.1523 70.0399 33.7483 69.6538 32.5198C69.3028 31.2562 68.6184 30.2559 67.6005 29.5188C66.6177 28.7817 65.3892 28.4132 63.9151 28.4132C61.9846 28.4132 60.4227 28.887 59.2293 29.8347C58.071 30.7824 57.2111 32.0811 56.6495 33.7308C56.123 35.3453 55.8597 37.1529 55.8597 39.1536C55.8597 40.698 56.1405 42.0318 56.7021 43.1549C57.2988 44.2781 58.1237 45.1381 59.1766 45.7348C60.2296 46.2963 61.4581 46.5771 62.8621 46.5771C64.4415 46.5771 65.828 46.2261 67.0214 45.5242C68.2147 44.8222 69.1624 43.9271 69.8644 42.8391L75.3399 45.6821C74.673 47.051 73.7078 48.2619 72.4442 49.3149C71.2157 50.3679 69.7591 51.1927 68.0743 51.7894C66.4247 52.351 64.6346 52.6318 62.7041 52.6318ZM90.9512 52.3159C87.6519 52.3159 85.1949 51.4033 83.5803 49.5781C82.0008 47.7179 81.4217 45.1907 81.8429 41.9967L83.5803 29.5188H78.684L79.5263 23.3589H79.8949C81.2989 23.3589 82.4747 22.9552 83.4224 22.1479C84.3701 21.3407 84.9317 20.235 85.1071 18.8311L85.3704 16.8304H92.3727L91.4777 23.3589H97.9535L97.1111 29.5188H90.5827L88.8452 41.944C88.7048 42.9268 88.7224 43.7341 88.8979 44.3659C89.1085 44.9977 89.5121 45.4715 90.1088 45.7874C90.7406 46.1033 91.6005 46.2612 92.6886 46.2612C93.0045 46.2612 93.3204 46.2612 93.6363 46.2612C93.9522 46.2261 94.3207 46.1735 94.7419 46.1033L94.2154 52C93.7241 52.1404 93.1625 52.2281 92.5307 52.2632C91.934 52.2983 91.4075 52.3159 90.9512 52.3159ZM106.233 52.6318C104.407 52.6318 102.775 52.3334 101.336 51.7368C99.9323 51.1401 98.8266 50.2626 98.0193 49.1043C97.2121 47.946 96.8084 46.5245 96.8084 44.8397C96.8084 43.0146 97.2647 41.4526 98.1773 40.1539C99.0899 38.8553 100.353 37.8023 101.968 36.995C103.583 36.1526 105.443 35.5735 107.549 35.2576L117.184 33.7308L116.657 38.9957L108.549 40.4172C107.25 40.6629 106.162 41.1192 105.285 41.7861C104.407 42.4179 103.969 43.2953 103.969 44.4185C103.969 45.4013 104.32 46.1384 105.022 46.6298C105.759 47.1212 106.689 47.3669 107.812 47.3669C109.216 47.3669 110.48 47.051 111.603 46.4192C112.726 45.7523 113.656 44.8748 114.393 43.7867C115.13 42.6987 115.569 41.5053 115.709 40.2066L116.71 33.0463C116.85 32.0986 116.692 31.3089 116.236 30.6771C115.815 30.0102 115.218 29.5013 114.446 29.1503C113.674 28.7993 112.831 28.6238 111.919 28.6238C110.339 28.6238 108.918 29.045 107.654 29.8874C106.426 30.7298 105.478 31.8003 104.811 33.099L99.3882 30.0453C100.125 28.536 101.126 27.2549 102.389 26.2019C103.688 25.1139 105.18 24.2715 106.864 23.6748C108.584 23.043 110.409 22.7271 112.34 22.7271C114.656 22.7271 116.71 23.1834 118.5 24.096C120.325 25.0086 121.711 26.2546 122.659 27.8341C123.607 29.4135 123.923 31.2562 123.607 33.3622L121.027 52H114.446L115.13 47.1036L116.868 47.1563C115.99 48.3848 115.007 49.4026 113.919 50.2099C112.831 51.0172 111.638 51.6139 110.339 52C109.076 52.4212 107.707 52.6318 106.233 52.6318ZM138.141 63.5828C135.965 63.5828 133.982 63.2143 132.192 62.4772C130.401 61.7401 128.91 60.7222 127.716 59.4235C126.558 58.1599 125.803 56.6858 125.452 55.001L131.981 53.0003C132.227 54.3341 132.929 55.3695 134.087 56.1066C135.245 56.8788 136.772 57.2649 138.667 57.2649C140.036 57.2649 141.282 57.0017 142.405 56.4752C143.529 55.9487 144.459 55.2116 145.196 54.2639C145.933 53.3162 146.372 52.2106 146.512 50.947L147.512 44.05L149.25 45.7348C148.162 47.4546 146.775 48.7358 145.091 49.5781C143.441 50.4205 141.563 50.8417 139.457 50.8417C136.93 50.8417 134.666 50.2801 132.665 49.1569C130.7 48.0338 129.155 46.4894 128.032 44.5238C126.909 42.5232 126.347 40.2417 126.347 37.6794C126.347 35.5384 126.716 33.5553 127.453 31.7301C128.225 29.9049 129.278 28.3254 130.612 26.9917C131.946 25.6579 133.508 24.6225 135.298 23.8854C137.088 23.1132 139.018 22.7271 141.089 22.7271C143.336 22.7271 145.354 23.1834 147.144 24.096C148.934 25.0086 150.32 26.3248 151.303 28.0447L149.934 29.6768L150.777 23.3589H157.358L153.514 51.1576C153.198 53.5795 152.321 55.7205 150.882 57.5808C149.478 59.4411 147.67 60.8977 145.459 61.9507C143.283 63.0388 140.844 63.5828 138.141 63.5828ZM140.405 44.4712C141.984 44.4712 143.388 44.0851 144.617 43.3129C145.88 42.5407 146.846 41.5228 147.512 40.2592C148.214 38.9957 148.565 37.6092 148.565 36.1C148.565 34.7311 148.285 33.5202 147.723 32.4672C147.161 31.4142 146.372 30.5894 145.354 29.9927C144.371 29.3609 143.178 29.045 141.774 29.045C140.229 29.045 138.825 29.4311 137.562 30.2033C136.333 30.9404 135.35 31.9407 134.613 33.2043C133.876 34.4678 133.508 35.9069 133.508 37.5215C133.508 38.8553 133.789 40.0486 134.35 41.1016C134.947 42.1546 135.754 42.9795 136.772 43.5761C137.825 44.1728 139.036 44.4712 140.405 44.4712ZM172.958 52.6318C170.255 52.6318 167.815 52.0351 165.639 50.8417C163.463 49.6132 161.743 47.946 160.48 45.8401C159.216 43.699 158.584 41.2596 158.584 38.5218C158.584 36.3106 158.988 34.2572 159.795 32.3619C160.638 30.4314 161.796 28.7466 163.27 27.3076C164.744 25.8685 166.447 24.7453 168.377 23.938C170.308 23.1307 172.378 22.7271 174.59 22.7271C177.292 22.7271 179.732 23.3413 181.908 24.5698C184.084 25.7632 185.804 27.4129 187.068 29.5188C188.331 31.6248 188.963 34.0642 188.963 36.8371C188.963 39.0132 188.542 41.0665 187.699 42.997C186.857 44.8924 185.699 46.5771 184.224 48.0513C182.75 49.4904 181.048 50.6136 179.117 51.4209C177.187 52.2281 175.134 52.6318 172.958 52.6318ZM173.01 46.3139C174.695 46.3139 176.187 45.8927 177.485 45.0503C178.819 44.1728 179.855 43.0146 180.592 41.5755C181.364 40.1013 181.75 38.4867 181.75 36.7318C181.75 35.2225 181.452 33.9063 180.855 32.7831C180.258 31.6248 179.416 30.7122 178.328 30.0453C177.24 29.3784 175.976 29.045 174.537 29.045C172.852 29.045 171.343 29.4837 170.009 30.3612C168.675 31.2036 167.64 32.3443 166.903 33.7834C166.166 35.2225 165.797 36.8371 165.797 38.6271C165.797 40.1364 166.096 41.4702 166.692 42.6285C167.289 43.7516 168.131 44.6467 169.219 45.3136C170.308 45.9805 171.571 46.3139 173.01 46.3139ZM197.122 52L189.909 23.3589H197.122L202.177 45.8927H199.281L210.653 23.3589H218.55L203.23 52H197.122ZM217.411 52L218.464 44.6291H225.467L224.361 52H217.411Z" fill="#8E8E8E"/>
<path d="M133.564 72.1914H216.001" stroke="#BFBFBF" stroke-width="1.3855"/>
</svg>
